<mxfile host="app.diagrams.net" modified="2024-02-12T04:30:02.390Z" agent="Mozilla/5.0 (Windows NT 10.0; Win64; x64) AppleWebKit/537.36 (KHTML, like Gecko) Chrome/121.0.0.0 Safari/537.36" etag="kp8scYQEeX3crOhVWSJ6" version="23.1.2" type="github">
  <diagram name="Halaman-1" id="__BLz5A6bXq1-FUiN866">
    <mxGraphModel dx="1812" dy="824" grid="1" gridSize="10" guides="1" tooltips="1" connect="1" arrows="1" fold="1" page="1" pageScale="1" pageWidth="827" pageHeight="1169" math="0" shadow="0">
      <root>
        <mxCell id="0" />
        <mxCell id="1" parent="0" />
        <mxCell id="9bDaLFR3BEHSSWNF5F39-1" style="edgeStyle=orthogonalEdgeStyle;rounded=0;orthogonalLoop=1;jettySize=auto;html=1;exitX=0.5;exitY=1;exitDx=0;exitDy=0;entryX=0.5;entryY=0;entryDx=0;entryDy=0;" edge="1" parent="1" source="9bDaLFR3BEHSSWNF5F39-2" target="9bDaLFR3BEHSSWNF5F39-4">
          <mxGeometry relative="1" as="geometry" />
        </mxCell>
        <mxCell id="9bDaLFR3BEHSSWNF5F39-2" value="User Input" style="rounded=0;whiteSpace=wrap;html=1;" vertex="1" parent="1">
          <mxGeometry x="161" y="145" width="120" height="60" as="geometry" />
        </mxCell>
        <mxCell id="9bDaLFR3BEHSSWNF5F39-3" style="edgeStyle=orthogonalEdgeStyle;rounded=0;orthogonalLoop=1;jettySize=auto;html=1;exitX=0.5;exitY=1;exitDx=0;exitDy=0;" edge="1" parent="1" source="9bDaLFR3BEHSSWNF5F39-4" target="9bDaLFR3BEHSSWNF5F39-7">
          <mxGeometry relative="1" as="geometry" />
        </mxCell>
        <mxCell id="9bDaLFR3BEHSSWNF5F39-4" value="Mencatat Start Time" style="rounded=0;whiteSpace=wrap;html=1;" vertex="1" parent="1">
          <mxGeometry x="161" y="225" width="120" height="60" as="geometry" />
        </mxCell>
        <mxCell id="9bDaLFR3BEHSSWNF5F39-5" style="edgeStyle=orthogonalEdgeStyle;rounded=0;orthogonalLoop=1;jettySize=auto;html=1;exitX=1;exitY=0.5;exitDx=0;exitDy=0;entryX=0;entryY=0.5;entryDx=0;entryDy=0;" edge="1" parent="1" source="9bDaLFR3BEHSSWNF5F39-7" target="9bDaLFR3BEHSSWNF5F39-9">
          <mxGeometry relative="1" as="geometry" />
        </mxCell>
        <mxCell id="9bDaLFR3BEHSSWNF5F39-6" style="edgeStyle=orthogonalEdgeStyle;rounded=0;orthogonalLoop=1;jettySize=auto;html=1;exitX=0.5;exitY=1;exitDx=0;exitDy=0;entryX=0.5;entryY=0;entryDx=0;entryDy=0;" edge="1" parent="1" source="9bDaLFR3BEHSSWNF5F39-7" target="9bDaLFR3BEHSSWNF5F39-21">
          <mxGeometry relative="1" as="geometry" />
        </mxCell>
        <mxCell id="9bDaLFR3BEHSSWNF5F39-7" value="Pindai Port Start - End" style="rounded=0;whiteSpace=wrap;html=1;" vertex="1" parent="1">
          <mxGeometry x="161" y="305" width="120" height="60" as="geometry" />
        </mxCell>
        <mxCell id="9bDaLFR3BEHSSWNF5F39-8" value="" style="edgeStyle=orthogonalEdgeStyle;rounded=0;orthogonalLoop=1;jettySize=auto;html=1;" edge="1" parent="1" source="9bDaLFR3BEHSSWNF5F39-9" target="9bDaLFR3BEHSSWNF5F39-13">
          <mxGeometry relative="1" as="geometry" />
        </mxCell>
        <mxCell id="9bDaLFR3BEHSSWNF5F39-9" value="Rubah Menjadi String" style="rounded=0;whiteSpace=wrap;html=1;" vertex="1" parent="1">
          <mxGeometry x="421" y="305" width="120" height="60" as="geometry" />
        </mxCell>
        <mxCell id="9bDaLFR3BEHSSWNF5F39-10" value="Melakukan Koneksi Menggunakan soket" style="rounded=0;whiteSpace=wrap;html=1;" vertex="1" parent="1">
          <mxGeometry x="421" y="395" width="120" height="60" as="geometry" />
        </mxCell>
        <mxCell id="9bDaLFR3BEHSSWNF5F39-11" style="edgeStyle=orthogonalEdgeStyle;rounded=0;orthogonalLoop=1;jettySize=auto;html=1;exitX=0;exitY=0.5;exitDx=0;exitDy=0;entryX=0.5;entryY=0;entryDx=0;entryDy=0;" edge="1" parent="1" source="9bDaLFR3BEHSSWNF5F39-13" target="9bDaLFR3BEHSSWNF5F39-15">
          <mxGeometry relative="1" as="geometry" />
        </mxCell>
        <mxCell id="9bDaLFR3BEHSSWNF5F39-12" style="edgeStyle=orthogonalEdgeStyle;rounded=0;orthogonalLoop=1;jettySize=auto;html=1;exitX=1;exitY=0.5;exitDx=0;exitDy=0;entryX=0.5;entryY=0;entryDx=0;entryDy=0;" edge="1" parent="1" source="9bDaLFR3BEHSSWNF5F39-13" target="9bDaLFR3BEHSSWNF5F39-17">
          <mxGeometry relative="1" as="geometry" />
        </mxCell>
        <mxCell id="9bDaLFR3BEHSSWNF5F39-13" value="Port Terbuka" style="rhombus;whiteSpace=wrap;html=1;" vertex="1" parent="1">
          <mxGeometry x="426" y="475" width="110" height="80" as="geometry" />
        </mxCell>
        <mxCell id="9bDaLFR3BEHSSWNF5F39-14" style="edgeStyle=orthogonalEdgeStyle;rounded=0;orthogonalLoop=1;jettySize=auto;html=1;exitX=0.5;exitY=1;exitDx=0;exitDy=0;entryX=0;entryY=0.5;entryDx=0;entryDy=0;" edge="1" parent="1" source="9bDaLFR3BEHSSWNF5F39-15" target="9bDaLFR3BEHSSWNF5F39-19">
          <mxGeometry relative="1" as="geometry" />
        </mxCell>
        <mxCell id="9bDaLFR3BEHSSWNF5F39-15" value="Print &lt;br&gt;(Port Terbuka)" style="rounded=0;whiteSpace=wrap;html=1;" vertex="1" parent="1">
          <mxGeometry x="301" y="575" width="120" height="60" as="geometry" />
        </mxCell>
        <mxCell id="9bDaLFR3BEHSSWNF5F39-16" style="edgeStyle=orthogonalEdgeStyle;rounded=0;orthogonalLoop=1;jettySize=auto;html=1;exitX=0.5;exitY=1;exitDx=0;exitDy=0;entryX=1;entryY=0.5;entryDx=0;entryDy=0;" edge="1" parent="1" source="9bDaLFR3BEHSSWNF5F39-17" target="9bDaLFR3BEHSSWNF5F39-19">
          <mxGeometry relative="1" as="geometry" />
        </mxCell>
        <mxCell id="9bDaLFR3BEHSSWNF5F39-17" value="Skip" style="rounded=0;whiteSpace=wrap;html=1;" vertex="1" parent="1">
          <mxGeometry x="546" y="575" width="120" height="60" as="geometry" />
        </mxCell>
        <mxCell id="9bDaLFR3BEHSSWNF5F39-18" style="edgeStyle=orthogonalEdgeStyle;rounded=0;orthogonalLoop=1;jettySize=auto;html=1;exitX=0.5;exitY=1;exitDx=0;exitDy=0;entryX=0.75;entryY=1;entryDx=0;entryDy=0;" edge="1" parent="1" source="9bDaLFR3BEHSSWNF5F39-19" target="9bDaLFR3BEHSSWNF5F39-7">
          <mxGeometry relative="1" as="geometry">
            <mxPoint x="171" y="475" as="targetPoint" />
          </mxGeometry>
        </mxCell>
        <mxCell id="9bDaLFR3BEHSSWNF5F39-19" value="Melanjutkan Proses" style="rounded=0;whiteSpace=wrap;html=1;" vertex="1" parent="1">
          <mxGeometry x="426" y="675" width="120" height="60" as="geometry" />
        </mxCell>
        <mxCell id="9bDaLFR3BEHSSWNF5F39-20" style="edgeStyle=orthogonalEdgeStyle;rounded=0;orthogonalLoop=1;jettySize=auto;html=1;exitX=0.5;exitY=1;exitDx=0;exitDy=0;" edge="1" parent="1" source="9bDaLFR3BEHSSWNF5F39-21" target="9bDaLFR3BEHSSWNF5F39-23">
          <mxGeometry relative="1" as="geometry" />
        </mxCell>
        <mxCell id="9bDaLFR3BEHSSWNF5F39-21" value="Mencatat Finish Time" style="rounded=0;whiteSpace=wrap;html=1;" vertex="1" parent="1">
          <mxGeometry x="161" y="785" width="120" height="60" as="geometry" />
        </mxCell>
        <mxCell id="9bDaLFR3BEHSSWNF5F39-22" style="edgeStyle=orthogonalEdgeStyle;rounded=0;orthogonalLoop=1;jettySize=auto;html=1;exitX=0.5;exitY=1;exitDx=0;exitDy=0;entryX=0.5;entryY=0;entryDx=0;entryDy=0;" edge="1" parent="1" source="9bDaLFR3BEHSSWNF5F39-23" target="9bDaLFR3BEHSSWNF5F39-24">
          <mxGeometry relative="1" as="geometry" />
        </mxCell>
        <mxCell id="9bDaLFR3BEHSSWNF5F39-23" value="Menghitung Waktu Total" style="rounded=0;whiteSpace=wrap;html=1;" vertex="1" parent="1">
          <mxGeometry x="161" y="875" width="120" height="60" as="geometry" />
        </mxCell>
        <mxCell id="9bDaLFR3BEHSSWNF5F39-24" value="Program Selesai" style="rounded=0;whiteSpace=wrap;html=1;" vertex="1" parent="1">
          <mxGeometry x="161" y="965" width="120" height="60" as="geometry" />
        </mxCell>
      </root>
    </mxGraphModel>
  </diagram>
</mxfile>
